/* XPM */
static char *result[] = {
/* columns rows colors chars-per-pixel */
"32 32 77 1 ",
"  c #020200",
". c #090700",
"X c #090800",
"o c #131200",
"O c #191700",
"+ c #1D1B00",
"@ c #201D00",
"# c #282501",
"$ c #2D2B00",
"% c #302E00",
"& c #353201",
"* c #393701",
"= c #3E3901",
"- c #433D00",
"; c #434201",
": c #4A4501",
"> c #4E4B01",
", c #534F01",
"< c #555102",
"1 c #5B5501",
"2 c #5A5902",
"3 c #605700",
"4 c #645C02",
"5 c #695F01",
"6 c #656102",
"7 c #6A6201",
"8 c #6D6B03",
"9 c #706601",
"0 c #746C02",
"q c #796E00",
"w c #757303",
"e c #7C7201",
"r c #7E7C03",
"t c #817601",
"y c #817A04",
"u c #868204",
"i c #8C8404",
"p c #8D8B04",
"a c #928601",
"s c #938C03",
"d c #998F04",
"f c #969304",
"g c #9A9404",
"h c #9D9A05",
"j c #A19504",
"k c #A39C04",
"l c #AB9D04",
"z c #A5A205",
"x c #ADA303",
"c c #ADAA06",
"v c #B3A503",
"b c #B5AB03",
"n c #BCAD02",
"m c #B4B106",
"M c #BBB404",
"N c #BBB805",
"B c #C0AF01",
"V c #C4B402",
"C c #C4BC06",
"Z c #CBBB02",
"A c #D5C402",
"S c #D9C702",
"D c #DDCC05",
"F c #E2CF01",
"G c #E4D202",
"H c #E9D602",
"J c #EDDA03",
"K c #F2DE02",
"L c #F3D50F",
"P c #F6DC0B",
"I c #F8DE0A",
"U c #F6E201",
"Y c #FBE502",
"T c #FEE901",
"R c #F7E00B",
"E c #FAE409",
"W c None",
/* pixels */
"WWWWWWWWWWWWWWWWWWWWWWWWWWWWWWWW",
"WWWWWWWWWWWWWWWWWWWWWWWWWWWWWWWW",
"WWWWWWWWWWWYTYYTTYYYEWWWWWWWWWWW",
"WWWWWWWWWTTTEsCYYlvTTTEWWWWWWWWW",
"WWWWWWWYYSGED=1vh%7JYSGEEWWWWWWW",
"WWWWWWYTK41i6grphyhzi;sYTEWWWWWW",
"WWWWWYTTJ1*urkgfcgf7p,dETYEWWWWW",
"WWWWEKkbu6fufegllauwchujvbEEWWWW",
"WWWWYH>OuhgfAUTTTTJVeuci&eUYWWWW",
"WWWTTYe2hzvUTTTTTTTTHsrhmbTYEWWW",
"WWWYJA<fgvYHGGFGGGGFHJi0pyGPYWWW",
"WWEG<%uksUU03vn51nv55UH7cf=0RRWW",
"WWTJy;pkSTU9ZTYe7UTA5KTvsp$kUEWW",
"WWTTAfhaUTYlYTYe7UTYxUTGgc4JTYWW",
"WWTUl#$gTTTYTTYe7YTTYTTU6&&ZYTWW",
"WWUy# XxTTTTTTYq5UTTTTTYe  =lTWW",
"WWUj* .xTTTTTTTe7UTTTTTYr  1BTWW",
"WWTTbO sTTTTTTYq7YTTTTTU2 %DTEWW",
"WWTTZ@ 6UTTTTTYq7UTTTTTD& -HTEWW",
"WWEG5.>hSTTTTTTe7YTTTTTl7<oiUIWW",
"WWYGe,zMiJTTTTYq4KTTTTD<bk5yKLWW",
"WWWTUG6wfkUTTSx:-jATTHicwdKYEWWW",
"WWWETYerc8hJTJFFFFHTFemNwxTTPWWW",
"WWWWEG:&>khpVGYYYKGvsO6u$0YEWWWW",
"WWWWEUnAl4wMwwruyezgz--nZZEWWWWW",
"WWWWWYTTK3$u2Nfg$1hh,*sTTTLWWWWW",
"WWWWWWYYK7qv07:8+o1dx3dTYLWWWWWW",
"WWWWWWWRTHKTG=7Zn-9KTHKEWWWWWWWW",
"WWWWWWWWWETTYvATTBVTTEPWWWWWWWWW",
"WWWWWWWWWWWPIETTTYEILWWWWWWWWWWW",
"WWWWWWWWWWWWWWWWWWWWWWWWWWWWWWWW",
"WWWWWWWWWWWWWWWWWWWWWWWWWWWWWWWW"
};
