/* XPM */
static char *result[] = {
/* columns rows colors chars-per-pixel */
"64 64 127 2 ",
"   c #020100",
".  c #080700",
"X  c #0B0A00",
"o  c #100E00",
"O  c #141200",
"+  c #181600",
"@  c #1D1B00",
"#  c #211D00",
"$  c #242200",
"%  c #292601",
"&  c #2C2A00",
"*  c #332E00",
"=  c #353201",
"-  c #3A3500",
";  c #3C3B01",
":  c #423D01",
">  c #444101",
",  c #4A4501",
"<  c #4D4A02",
"1  c #524C02",
"2  c #584F01",
"3  c #545202",
"4  c #5A5402",
"5  c #5B5902",
"6  c #615701",
"7  c #635D02",
"8  c #695F01",
"9  c #646203",
"0  c #6A6403",
"q  c #6D6B03",
"w  c #716601",
"e  c #736B02",
"r  c #7A6F02",
"t  c #757303",
"y  c #7B7403",
"u  c #7C7A03",
"i  c #817601",
"p  c #847A03",
"a  c #8A7E01",
"s  c #858204",
"d  c #8A8504",
"f  c #8D8A04",
"g  c #8B820A",
"h  c #928501",
"j  c #938C03",
"k  c #9A8D01",
"l  c #948B09",
"z  c #998F0A",
"x  c #959205",
"c  c #9E9201",
"v  c #9D9A05",
"b  c #9D9209",
"n  c #A19402",
"m  c #A49C04",
"M  c #AA9D03",
"N  c #A29708",
"B  c #A49B0A",
"V  c #A89C0A",
"C  c #A5A205",
"Z  c #ABA305",
"A  c #ADAA06",
"S  c #A6A308",
"D  c #ADA209",
"F  c #ACA908",
"G  c #B3A402",
"H  c #B2AD06",
"J  c #BBAB02",
"K  c #B2A60A",
"L  c #B5A90A",
"P  c #BAAE09",
"I  c #B6B206",
"U  c #B9B606",
"Y  c #BDBA06",
"T  c #BEB10A",
"R  c #BBB808",
"E  c #C4B302",
"W  c #C8B601",
"Q  c #C1BD06",
"!  c #CABA01",
"~  c #C2B50A",
"^  c #C1BE08",
"/  c #CCBD0A",
"(  c #D0BF01",
")  c #E6BF16",
"_  c #C4C106",
"`  c #C9C607",
"'  c #CECA07",
"]  c #C5C208",
"[  c #CECA08",
"{  c #D5C303",
"}  c #D8C601",
"|  c #D1CE07",
" . c #DDCB02",
".. c #D3C40A",
"X. c #D7C808",
"o. c #DCCC09",
"O. c #D5D207",
"+. c #DAD607",
"@. c #D8D408",
"#. c #E0CE02",
"$. c #E5D303",
"%. c #E9D602",
"&. c #EDDA03",
"*. c #E4D309",
"=. c #E8D609",
"-. c #ECDA09",
";. c #F1DE03",
":. c #F7D70F",
">. c #F4DB0E",
",. c #F9DC0E",
"<. c #E7C116",
"1. c #EBC515",
"2. c #EECB14",
"3. c #F0CD16",
"4. c #EFD210",
"5. c #F2D212",
"6. c #F4DC10",
"7. c #F9D910",
"8. c #F5E202",
"9. c #FBE602",
"0. c #FFEA00",
"q. c #F6E20B",
"w. c #FBE30A",
"e. c #FCE80A",
"r. c #F6E110",
"t. c #F9E310",
"y. c None",
/* pixels */
"y.y.y.y.y.y.y.y.y.y.y.y.y.y.y.y.y.y.y.y.y.y.y.y.y.y.y.y.y.y.y.y.y.y.y.y.y.y.y.y.y.y.y.y.y.y.y.y.y.y.y.y.y.y.y.y.y.y.y.y.y.y.y.y.",
"y.y.y.y.y.y.y.y.y.y.y.y.y.y.y.y.y.y.y.y.y.y.y.y.y.y.y.y.y.y.y.y.y.y.y.y.y.y.y.y.y.y.y.y.y.y.y.y.y.y.y.y.y.y.y.y.y.y.y.y.y.y.y.y.",
"y.y.y.y.y.y.y.y.y.y.y.y.y.y.y.y.y.y.y.y.y.y.y.y.y.y.y.y.y.y.y.y.y.y.y.y.y.y.y.y.y.y.y.y.y.y.y.y.y.y.y.y.y.y.y.y.y.y.y.y.y.y.y.y.",
"y.y.y.y.y.y.y.y.y.y.y.y.y.y.y.y.y.y.y.y.y.y.y.y.y.y.y.e.e.9.e.e.e.e.e.e.q.y.y.y.y.y.y.y.y.y.y.y.y.y.y.y.y.y.y.y.y.y.y.y.y.y.y.y.",
"y.y.y.y.y.y.y.y.y.y.y.y.y.y.y.y.y.y.y.y.y.y.y.e.e.0.0.0.0.0.0.0.0.0.0.0.0.0.e.e.r.y.y.y.y.y.y.y.y.y.y.y.y.y.y.y.y.y.y.y.y.y.y.y.",
"y.y.y.y.y.y.y.y.y.y.y.y.y.y.y.y.y.y.y.y.q.e.0.0.0.0.0.9.9.0.0.0.0.0.0.9.e.0.0.9.0.e.w.y.y.y.y.y.y.y.y.y.y.y.y.y.y.y.y.y.y.y.y.y.",
"y.y.y.y.y.y.y.y.y.y.y.y.y.y.y.y.y.y.9.e.0.0.0.0.0.8.~ N L 8.e.0.0.0.o.b K o.0.0.0.0.0.e.w.y.y.y.y.y.y.y.y.y.y.y.y.y.y.y.y.y.y.y.",
"y.y.y.y.y.y.y.y.y.y.y.y.y.y.y.y.y.e.0.0.0.0.0.0.0.-.1 o 5 *.0.0.0.e.V # @ G 9.0.0.0.0.0.0.e.t.y.y.y.y.y.y.y.y.y.y.y.y.y.y.y.y.y.",
"y.y.y.y.y.y.y.y.y.y.y.y.y.y.y.e.0.0.0.;.q.0.0.0.0.o.>   O p ..-.$.K >   X b 9.0.0.0.0.;.e.0.0.e.6.y.y.y.y.y.y.y.y.y.y.y.y.y.y.y.",
"y.y.y.y.y.y.y.y.y.y.y.y.y.y.e.0.0.8./ p D 8.0.0.q.z $     > t 0 4 %     . 3 ..e.0.9.X.u B =.0.0.e.t.y.y.y.y.y.y.y.y.y.y.y.y.y.y.",
"y.y.y.y.y.y.y.y.y.y.y.y.y.e.0.0.0.$.4 . = g T P p > x > * 9 C = q u 5 $ u C m D ~ D 7 X $ M 9.0.0.0.w.y.y.y.y.y.y.y.y.y.y.y.y.y.",
"y.y.y.y.y.y.y.y.y.y.y.y.0.0.0.0.e.;.r     X @ $ & = Y ] I q I u _ R I u ] x I f @ O   . $ ! 0.0.0.0.e.w.y.y.y.y.y.y.y.y.y.y.y.y.",
"y.y.y.y.y.y.y.y.y.y.y.e.0.0.0.0.0.8.p       % x A 5 F F Y d ^ j R v I v C $ = ; < 5 #   % ..e.0.0.0.0.0.w.y.y.y.y.y.y.y.y.y.y.y.",
"y.y.y.y.y.y.y.y.y.y.0.0.0.0.0.0.0.o.3 . = ; q Q q 5 s F x d v 4 C I x t _ x s 0 ^ Y s @ 9 S e.0.0.0.0.0.0.w.y.y.y.y.y.y.y.y.y.y.",
"y.y.y.y.y.y.y.y.y.e.0.9./ T -.-...u o 5 I x 9 Q A F < 9 - : , > < , = % y C d j A x A 9 F 0 K 4.;.o.K -.0.e.6.y.y.y.y.y.y.y.y.y.",
"y.y.y.y.y.y.y.y.9.0.0.X.4 * 7 0 > O O x F 9 u 0 s 5 8 x J (  .#. .} ! M u < # 5 R ] f R s 5 = 5 0 , % N 8.0.e.y.y.y.y.y.y.y.y.y.",
"y.y.y.y.y.y.y.y.0.0.9.Z %       @ t f s _ Y x : a W &.9.0.0.0.0.0.0.0.0.;. .M 5 > < x F x ' v %     . 0 $.0.0.w.y.y.y.y.y.y.y.y.",
"y.y.y.y.y.y.y.e.0.0.0.&.e       q ] ' s 5 q y ! 8.0.0.0.0.0.0.0.0.0.0.0.0.0.9.$.n > < t R f ` 1 & & & ~ 9.0.0.0.6.y.y.y.y.y.y.y.",
"y.y.y.y.y.y.e.0.0.0.0.9.M o . = u @.R F > c %.0.0.0.0.0.0.0.0.0.0.0.0.0.0.0.0.0.8.! 0 > 9 A v q U b 4 $.0.0.0.0.w.y.y.y.y.y.y.y.",
"y.y.y.y.y.y.e.0.0.0.0.e.M o $ v t v A y G 8.0.0.0.0.0.0.0.0.0.0.0.0.0.0.0.0.0.0.0.0. .e ; u f ' | ` q %.0.0.0.0.0.6.y.y.y.y.y.y.",
"y.y.y.y.y.e.0.0.e.0.0.=.q + t Z Y : ; G 8.0.0.0.0.0.0.0.0.0.0.0.0.0.0.0.0.0.0.0.0.0.9. .w = m d H v ; P e.0.0.0.0.e.y.y.y.y.y.y.",
"y.y.y.y.y.e.0.8.@.*...p @ % f H _ q n 8.0.9.} ! ! ! ! ! W ! ! W W W ! ! ! ! ! W W { 8.0.{ 4 $ X 3 u 3 < L o.*.=.0.0.5.y.y.y.y.y.",
"y.y.y.y.y.e.0...4 < ; o @ x v 9 > y %.0.0.8.a = * * 1 0 w e 2 * * , q w 8 2 = * * w &.0.9.J * ; I R I ; % < < l 8.0.,.y.y.y.y.y.",
"y.y.y.y.9.0.9.B O       5 _ H ` 8 ! 0.0.0.8.p . o r { %.&.%.h . . y $.&.%.#.h @   0 &.0.0.;.p 3 ^ u ` t       3 *.0.e.y.y.y.y.y.",
"y.y.y.y.0.0.9.J 4 .   . q _ x U h 8.0.0.0.8.p X 8 #.0.0.0.9.n X . i 8.0.0.0.&.i X 8 %.0.0.9.( : C ' C 3 X   % h $.0.0.5.y.y.y.y.",
"y.y.y.y.e.0.0.9.! , $ q > x A u ! 0.0.0.0.8.p * E 9.0.0.0.9.n . . i 8.0.0.0.0.{ , 8 &.0.0.0.;.y > 3 u S ; O k ;.0.0.0.>.y.y.y.y.",
"y.y.y.y.0.0.0.0.9.d 3 | m u 4 0 &.0.0.0.0.8.p y ;.0.0.0.0.9.n . . i ;.0.0.0.0.8.c 0 &.0.0.0.0.J f A | f * ; } 0.0.0.0.,.y.y.y.y.",
"y.y.y.e.0.0.0.0.9.n 9 H C Y m k 9.0.0.0.0.8.M W 0.0.0.0.0.9.c X . i 8.0.0.0.0.0.} k &.0.0.0.0. .u v I U y 1 $.0.0.0.0.e.y.y.y.y.",
"y.y.y.9.0.0.0.0.8.p + % O $ ; E 0.0.0.0.0.0.8.9.0.0.0.0.0.9.c X . p 8.0.0.0.0.0.9.8.0.0.0.0.0.;.0 X @ = & = ..e.0.0.0.9.y.y.y.y.",
"y.y.y.e.0.0.e.q.K =         = { 0.0.0.0.0.0.0.0.0.0.0.0.0.9.c X . p 8.0.0.0.0.0.0.0.0.0.0.0.0.8.d .       X e o.e.0.0.0.y.y.y.y.",
"y.y.y.9.0.8.D y *           : #.0.0.0.0.0.0.0.0.0.0.0.0.0.9.c X . i 8.0.0.0.0.0.0.0.0.0.0.0.0.9.k X         o 4 l ..0.9.2.y.y.y.",
"y.y.y.e.0.%.6               < %.0.0.0.0.0.0.0.0.0.0.0.0.0.9.n X . i 8.0.0.0.0.0.0.0.0.0.0.0.0.9.M o             @ G 0.e.5.y.y.y.",
"y.y.y.e.0.%.0 #             < $.0.0.0.0.0.0.0.0.0.0.0.0.9.9.n . . i 8.0.0.0.0.0.0.0.0.0.0.0.0.0.m o           o = J 9.0.3.y.y.y.",
"y.y.y.9.0.8.} G 6 .         : o.0.0.0.0.0.0.0.0.0.0.0.0.0.9.c X . p 8.0.0.0.0.0.0.0.0.0.0.0.0.9.x .         * h ! %.0.e.2.y.y.y.",
"y.y.y.e.0.0.0.0.{ ,         * { 0.0.0.0.0.0.0.0.0.0.0.0.0.9.c X . i 8.0.0.0.0.0.0.0.0.0.0.0.0.8.p .       + k ;.0.0.0.9.y.y.y.y.",
"y.y.y.e.0.0.0.0.8.h .       @ P 0.0.0.0.0.0.0.0.0.0.0.0.0.9.n X . i ;.0.0.0.0.0.0.0.0.0.0.0.0.;.5         : } 0.0.0.0.9.y.y.y.y.",
"y.y.y.y.0.0.0.0.0.N o       . l 9.0.0.0.0.0.0.0.0.0.0.0.0.9.n X . p 8.0.0.0.0.0.0.0.0.0.0.0.e.X.-         1 $.0.0.0.9.w.y.y.y.y.",
"y.y.y.y.0.0.0.0.;.p .         4 -.0.0.0.0.0.0.0.0.0.0.0.0.9.k X . p 8.0.0.0.0.0.0.0.0.0.0.0.e.D +         = / e.0.0.0.7.y.y.y.y.",
"y.y.y.y.9.0.0.;.D &       X = t R 0.0.0.0.0.0.0.0.0.0.0.0.9.c X . i 8.0.0.0.0.0.0.0.0.0.0.0.-.0 . @ +     . q o.9.0.0.5.y.y.y.y.",
"y.y.y.y.e.0.8.b %       & u Y O.F -.0.0.0.0.0.0.0.0.0.0.9.9.c X . p 8.0.0.0.0.0.0.0.0.0.0.0.T & 3 F x %     X 4 X.0.9.1.y.y.y.y.",
"y.y.y.y.q.0.9.G @ X X X d ' | ' x L 9.0.0.0.0.0.0.0.0.0.0.9.k X   p 8.0.0.0.0.0.0.0.0.0.0.=.0 @ C ` I s X X X 8 %.0.w.y.y.y.y.y.",
"y.y.y.y.y.e.0.#.h k y * 5 ` ` s = 3 X.e.0.0.0.0.0.0.0.0.0.9.k .   w ;.0.0.0.0.0.0.0.0.0.8.x $ + v @.Y p 5 h j G 9.0.5.y.y.y.y.y.",
"y.y.y.y.y.e.0.9.8.9.&.G ; 5 9 > t 5 y *.0.0.0.0.0.0.9.;.&.! 5 .   = Z #.;.9.0.0.0.0.0.9.H 0 C 5 : f s i  .9.9.8.0.9.1.y.y.y.y.y.",
"y.y.y.y.y.y.0.0.0.0.0.;.p . % F R R 3 g -.0.0.0.0.0.#.u 8 > # # # # * 2 r ! 0.0.0.0.9.~ 3 5 +.' f & - ! 0.0.0.0.0.7.y.y.y.y.y.y.",
"y.y.y.y.y.y.e.0.0.0.0.0.Z O ; _ s ] j $ p +.9.0.0.0.&.! W W W ! W W W W W $.0.0.0.8.P 3 I I U Y H 9 5 -.0.0.0.0.9.2.y.y.y.y.y.y.",
"y.y.y.y.y.y.y.9.0.0.0.9.n o + s ' F , q 5 0 / 8.0.0.0.0.0.0.0.0.0.9.0.0.0.9.0.e.=.b - O x @.` O.5 $ < +.0.0.0.0.7.y.y.y.y.y.y.y.",
"y.y.y.y.y.y.y.w.e.0.0.o.5     $ 9 = q [ R t : V o.8.0.0.0.0.0.0.0.0.0.0.0.9.&.P d ,     & F C q %   @ V 8.0.0.e.1.y.y.y.y.y.y.y.",
"y.y.y.y.y.y.y.y.9.0.9.Z $   O + . = A x Y f < I 0 f ~ $.;.e.e.0.9.9.e.&.X.K e , Q f X     , d & + . . 7 $.0.9.5.y.y.y.y.y.y.y.y.",
"y.y.y.y.y.y.y.y.>.0.0.%.i 8 n G i = 1 s I > v Y s ; & 3 y z m D D v g 0 v R C 3 I Y $     o 5 c G p 4 E 9.0.,.y.y.y.y.y.y.y.y.y.",
"y.y.y.y.y.y.y.y.y.q.9.0.%.$.9.9.;.M $ < , , ` @.v ; q v t @ - > $ X . u Y y A m 5 R 0     8  .9.9.8. .8.0.,.) y.y.y.y.y.y.y.y.y.",
"y.y.y.y.y.y.y.y.y.y.w.0.0.0.0.0.0.%.6     3 x U 5 : ` ` ` 3 m A :   . f I = s U & u q   + J 9.0.0.0.0.0.e.2.y.y.y.y.y.y.y.y.y.y.",
"y.y.y.y.y.y.y.y.y.y.y.w.0.0.0.0.0.8.p     . + q < > Q I A < A f X     3 Y I Q s . o X   % { 0.0.0.0.0.9.3.y.y.y.y.y.y.y.y.y.y.y.",
"y.y.y.y.y.y.y.y.y.y.y.y.w.0.0.0.0.-.e   . * 5 4 & O q m e @ m q       . 1 s 0 , 5 , +   # ~ 0.0.0.0.9.3.y.y.y.y.y.y.y.y.y.y.y.y.",
"y.y.y.y.y.y.y.y.y.y.y.y.y.,.0.0.0.%.y % 6 E $.$.J < . O X   * % X .       # d } &.} j & , J 0.0.0.w.1.y.y.y.y.y.y.y.y.y.y.y.y.y.",
"y.y.y.y.y.y.y.y.y.y.y.y.y.y.>.9.0.0.%.J ( 9.0.0.9.H $     * p M k 4 X   . 8 %.0.0.0.&.G } 9.0.0.,.) y.y.y.y.y.y.y.y.y.y.y.y.y.y.",
"y.y.y.y.y.y.y.y.y.y.y.y.y.y.y.y.,.0.0.0.9.0.0.0.0.$.>   % Z ;.0.9.} 8 . o m 9.0.0.0.9.9.9.0.e.5.y.y.y.y.y.y.y.y.y.y.y.y.y.y.y.y.",
"y.y.y.y.y.y.y.y.y.y.y.y.y.y.y.y.y.>.w.0.0.0.0.0.0.&.e - e &.0.0.0.9.J - 1 J 9.0.0.0.0.0.9.7.1.y.y.y.y.y.y.y.y.y.y.y.y.y.y.y.y.y.",
"y.y.y.y.y.y.y.y.y.y.y.y.y.y.y.y.y.y.y.>.w.0.0.0.0.9.%.} } 9.0.0.0.0.&.{ #.;.0.0.0.0.9.7.1.y.y.y.y.y.y.y.y.y.y.y.y.y.y.y.y.y.y.y.",
"y.y.y.y.y.y.y.y.y.y.y.y.y.y.y.y.y.y.y.y.y.4.,.9.0.0.0.0.0.0.0.0.0.0.0.0.0.0.9.0.w.5.1.y.y.y.y.y.y.y.y.y.y.y.y.y.y.y.y.y.y.y.y.y.",
"y.y.y.y.y.y.y.y.y.y.y.y.y.y.y.y.y.y.y.y.y.y.y.y.2.>.,.e.9.0.0.e.0.9.9.9.,.:.3.1.y.y.y.y.y.y.y.y.y.y.y.y.y.y.y.y.y.y.y.y.y.y.y.y.",
"y.y.y.y.y.y.y.y.y.y.y.y.y.y.y.y.y.y.y.y.y.y.y.y.y.y.y.y.y.y.2.4.2.1.y.y.y.y.y.y.y.y.y.y.y.y.y.y.y.y.y.y.y.y.y.y.y.y.y.y.y.y.y.y.",
"y.y.y.y.y.y.y.y.y.y.y.y.y.y.y.y.y.y.y.y.y.y.y.y.y.y.y.y.y.y.y.y.y.y.y.y.y.y.y.y.y.y.y.y.y.y.y.y.y.y.y.y.y.y.y.y.y.y.y.y.y.y.y.y.",
"y.y.y.y.y.y.y.y.y.y.y.y.y.y.y.y.y.y.y.y.y.y.y.y.y.y.y.y.y.y.y.y.y.y.y.y.y.y.y.y.y.y.y.y.y.y.y.y.y.y.y.y.y.y.y.y.y.y.y.y.y.y.y.y.",
"y.y.y.y.y.y.y.y.y.y.y.y.y.y.y.y.y.y.y.y.y.y.y.y.y.y.y.y.y.y.y.y.y.y.y.y.y.y.y.y.y.y.y.y.y.y.y.y.y.y.y.y.y.y.y.y.y.y.y.y.y.y.y.y."
};
