/* XPM */
static char *result[] = {
/* columns rows colors chars-per-pixel */
"16 16 144 2 ",
"   c #585502",
".  c #5E5601",
"X  c #676001",
"o  c #686002",
"O  c #6C6300",
"+  c #6E6701",
"@  c #6D6A02",
"#  c #756B00",
"$  c #736F02",
"%  c #756F03",
"&  c #767001",
"*  c #7A7002",
"=  c #7D7301",
"-  c #7F7502",
";  c #7F7C03",
":  c #827700",
">  c #837901",
",  c #848103",
"<  c #8B8203",
"1  c #8C8201",
"2  c #898403",
"3  c #8A8603",
"4  c #8C8603",
"5  c #8A8704",
"6  c #8C8803",
"7  c #8D8A04",
"8  c #958902",
"9  c #928D03",
"0  c #928F03",
"q  c #978C01",
"w  c #918A04",
"e  c #938D04",
"r  c #988E02",
"t  c #949004",
"y  c #969104",
"u  c #9B9203",
"i  c #999403",
"p  c #9E9403",
"a  c #9A9004",
"s  c #989304",
"d  c #989404",
"f  c #989504",
"g  c #999504",
"h  c #9D9905",
"j  c #A19501",
"k  c #A09403",
"l  c #A39A03",
"z  c #A79A01",
"x  c #A69A02",
"c  c #A79A02",
"v  c #A59C03",
"b  c #A89A01",
"n  c #AEA103",
"m  c #AEA202",
"M  c #ABA104",
"N  c #AEA404",
"B  c #B0A200",
"V  c #B3A501",
"C  c #B6A904",
"Z  c #B6AB04",
"A  c #B9AA03",
"S  c #BCAD01",
"D  c #BDAE03",
"F  c #B8AC04",
"G  c #BEB102",
"H  c #C1B001",
"J  c #C2B201",
"K  c #C3B201",
"L  c #C2B301",
"P  c #C0B103",
"I  c #C5B501",
"U  c #C6B600",
"Y  c #C6B601",
"T  c #C8B700",
"R  c #C9B801",
"E  c #CDBC01",
"W  c #D0BE01",
"Q  c #D2C101",
"!  c #D5C402",
"~  c #D8C703",
"^  c #D9C801",
"/  c #DAC802",
"(  c #DBC903",
")  c #DECC03",
"_  c #E0CD03",
"`  c #E0CE02",
"'  c #E1CF03",
"]  c #E3CF03",
"[  c #E3D001",
"{  c #E2D003",
"}  c #E5D201",
"|  c #E5D301",
" . c #E4D102",
".. c #E4D103",
"X. c #E7D401",
"o. c #E8D303",
"O. c #E8D401",
"+. c #E9D601",
"@. c #E8D503",
"#. c #E9D703",
"$. c #ECD604",
"%. c #ECD800",
"&. c #EEDA00",
"*. c #EEDB01",
"=. c #ECD802",
"-. c #EDDA02",
";. c #EFDD02",
":. c #F1DC01",
">. c #F0DD01",
",. c #F3DF01",
"<. c #F1DD03",
"1. c #F2DE02",
"2. c #F4DB07",
"3. c #F0DD04",
"4. c #F4DF06",
"5. c #F4DB0A",
"6. c #F7DD09",
"7. c #F5E101",
"8. c #F6E200",
"9. c #F6E201",
"0. c #F7E301",
"q. c #F4E002",
"w. c #F6E004",
"e. c #F7E104",
"r. c #F6E204",
"t. c #F7E106",
"y. c #F8E301",
"u. c #F8E302",
"i. c #F8E203",
"p. c #F9E303",
"a. c #F9E501",
"s. c #FAE500",
"d. c #FBE600",
"f. c #FCE700",
"g. c #F9E006",
"h. c #FAE404",
"j. c #FBE405",
"k. c #FCE704",
"l. c #FCE605",
"z. c #FEE900",
"x. c #FFEA00",
"c. c #FDE802",
"v. c #FDE803",
"b. c None",
/* pixels */
"b.b.b.b.b.b.b.b.b.b.b.b.b.b.b.b.",
"b.b.b.b.b.c...-.@.#.k.b.b.b.b.b.",
"b.b.b.v.! P a w 4 N D _ l.b.b.b.",
"b.b.r.~ k ; 9 l v 2 7 C ( t.b.b.",
"b.b.,.+ d G *.s.s.+.m t u u.b.b.",
"b.3.n 3 G ^ I Y I Y Q x y A 4.b.",
"b.0.r i >.Q %.U H &.W } g j p.b.",
"b.` o > d.f.z.T K z.f.y.X * @.b.",
"b.| O = d.x.x.T L x.x.0.. : =.b.",
"b.q.- $ ;.x.x.T J x.x.'   8 e.b.",
"b.<.S 0 F a.8.B b 7.9.M s I 2.b.",
"b.b.1.& 5 Z { O.X.) p f < i.b.b.",
"b.b.w.[ c , 6 e % h @ V  .5.b.b.",
"b.b.b.j./ E q 1 # z R ] 6.b.b.b.",
"b.b.b.b.b.h.o.:.=.$.g.b.b.b.b.b.",
"b.b.b.b.b.b.b.b.b.b.b.b.b.b.b.b."
};
