<?xml version="1.0" standalone="no"?>
<!DOCTYPE svg PUBLIC "-//W3C//DTD SVG 20010904//EN"
 "http://www.w3.org/TR/2001/REC-SVG-20010904/DTD/svg10.dtd">
<svg version="1.0" xmlns="http://www.w3.org/2000/svg"
 width="1024.000000pt" height="1024.000000pt" viewBox="0 0 1024.000000 1024.000000"
 preserveAspectRatio="xMidYMid meet">
<metadata>
Created by potrace 1.16, written by Peter Selinger 2001-2019
</metadata>
<g transform="translate(0.000000,1024.000000) scale(0.100000,-0.100000)"
fill="#000000" stroke="none">
<path d="M0 5120 l0 -5120 5120 0 5120 0 0 5120 0 5120 -5120 0 -5120 0 0
-5120z m5649 4572 c63 -6 119 -16 125 -22 5 -5 38 -10 72 -10 35 0 66 -4 69
-10 3 -5 24 -10 46 -10 22 0 56 -7 76 -15 19 -8 55 -15 79 -15 23 0 46 -4 49
-10 3 -5 20 -10 37 -10 16 0 44 -6 61 -14 18 -8 46 -17 62 -19 56 -10 120 -28
129 -38 6 -5 22 -9 37 -9 15 0 31 -4 34 -10 3 -5 14 -10 23 -10 9 0 30 -7 46
-15 15 -8 39 -15 52 -15 12 0 26 -4 29 -10 3 -5 14 -10 23 -10 9 0 30 -7 46
-15 15 -8 35 -15 42 -15 8 0 14 -4 14 -9 0 -5 13 -11 29 -14 16 -3 63 -22 106
-42 42 -19 79 -35 81 -35 22 0 357 -177 362 -191 2 -5 12 -9 22 -9 9 0 23 -7
30 -15 7 -8 16 -15 21 -15 17 0 305 -187 349 -227 14 -13 30 -23 35 -23 6 0
26 -16 45 -35 19 -19 39 -35 45 -35 6 0 36 -22 66 -48 29 -27 62 -53 72 -59
64 -35 553 -529 600 -605 10 -17 36 -49 58 -71 21 -22 39 -44 39 -49 0 -5 16
-26 35 -46 19 -20 35 -42 35 -47 0 -6 10 -21 23 -35 28 -31 160 -231 232 -352
6 -9 21 -38 35 -65 14 -26 27 -50 30 -53 16 -16 116 -218 185 -375 47 -106 55
-126 55 -140 0 -8 5 -15 10 -15 6 0 10 -10 10 -22 0 -13 7 -32 15 -42 8 -11
15 -30 15 -42 0 -13 5 -26 10 -29 6 -3 10 -16 10 -29 0 -12 4 -26 9 -32 10
-11 41 -107 41 -127 0 -8 7 -28 15 -43 8 -16 15 -41 15 -56 0 -15 5 -30 10
-33 6 -3 10 -15 10 -27 0 -11 7 -43 16 -72 31 -97 34 -113 34 -152 0 -22 4
-44 10 -50 10 -10 25 -86 40 -209 5 -38 17 -131 27 -205 33 -253 21 -1052 -17
-1135 -5 -11 -11 -49 -14 -85 -6 -90 -25 -203 -37 -214 -5 -6 -9 -31 -9 -56 0
-26 -3 -50 -7 -54 -8 -7 -29 -90 -40 -154 -3 -18 -9 -35 -14 -38 -5 -3 -9 -17
-9 -32 0 -15 -7 -40 -15 -56 -8 -15 -15 -39 -15 -52 0 -12 -5 -26 -10 -29 -5
-3 -10 -16 -10 -28 0 -12 -7 -35 -15 -51 -8 -15 -15 -35 -15 -42 0 -8 -4 -22
-9 -32 -5 -9 -17 -37 -26 -62 -9 -25 -21 -53 -26 -62 -5 -10 -9 -23 -9 -29 0
-22 -222 -495 -239 -509 -3 -3 -16 -25 -29 -50 -27 -54 -40 -75 -69 -117 -13
-17 -23 -34 -23 -37 0 -3 -17 -31 -37 -62 -21 -31 -42 -64 -48 -73 -5 -9 -22
-32 -37 -52 -16 -20 -28 -41 -28 -47 0 -5 -7 -16 -16 -23 -9 -8 -27 -30 -39
-49 -13 -19 -31 -44 -42 -55 -10 -11 -22 -27 -25 -35 -11 -28 -272 -323 -389
-440 -72 -72 -237 -223 -318 -291 -35 -30 -76 -64 -90 -76 -14 -12 -31 -22
-38 -23 -6 0 -13 -3 -15 -8 -4 -8 -135 -112 -142 -112 -6 0 -99 -62 -106 -71
-8 -10 -241 -152 -285 -174 -22 -11 -42 -22 -45 -25 -3 -3 -43 -26 -90 -50
-109 -56 -105 -53 -175 -86 -111 -50 -160 -72 -200 -88 -22 -10 -48 -21 -57
-26 -10 -6 -26 -10 -36 -10 -10 0 -22 -4 -27 -9 -6 -4 -35 -16 -65 -26 -30
-10 -69 -24 -87 -32 -17 -7 -38 -13 -47 -13 -9 0 -24 -4 -34 -9 -31 -16 -117
-41 -139 -41 -12 0 -25 -4 -28 -10 -3 -5 -21 -10 -39 -10 -17 0 -36 -4 -41 -9
-11 -10 -94 -30 -160 -37 -22 -3 -49 -9 -60 -15 -21 -10 -106 -25 -220 -39
-38 -5 -104 -13 -145 -19 -41 -6 -114 -15 -161 -21 -108 -13 -713 -13 -794 -1
-33 5 -98 13 -145 16 -47 4 -89 10 -95 14 -5 3 -41 9 -80 13 -88 8 -184 25
-210 38 -11 5 -40 11 -65 13 -50 5 -125 23 -155 36 -11 6 -33 12 -50 15 -62
10 -111 23 -132 34 -12 7 -33 12 -47 12 -14 0 -28 5 -31 10 -3 6 -14 10 -23
10 -9 0 -30 7 -46 15 -15 8 -37 15 -47 15 -10 0 -21 5 -24 10 -3 6 -16 10 -29
10 -12 0 -31 7 -42 15 -10 8 -27 15 -37 15 -9 0 -25 4 -35 9 -9 4 -33 15 -52
23 -19 8 -62 28 -95 43 -33 15 -84 38 -112 51 -123 56 -170 80 -199 101 -17
13 -36 23 -43 23 -6 0 -28 10 -49 23 -20 13 -44 27 -52 31 -15 7 -24 12 -95
55 -61 37 -269 174 -275 181 -3 4 -32 26 -65 50 -33 24 -61 47 -63 52 -2 4 -9
8 -16 8 -7 0 -37 22 -67 48 -29 27 -64 55 -76 63 -95 65 -550 519 -586 586 -6
10 -32 43 -59 72 -26 30 -48 59 -48 63 0 5 -16 25 -35 45 -19 20 -35 40 -35
45 0 5 -18 31 -40 57 -22 26 -40 52 -40 58 0 6 -4 13 -8 15 -8 3 -52 70 -160
244 -17 29 -32 56 -32 60 0 4 -6 15 -14 23 -25 28 -170 321 -227 459 -5 12
-13 32 -18 45 -26 60 -42 100 -56 131 -8 19 -15 41 -15 49 0 9 -4 19 -10 22
-5 3 -10 17 -10 29 0 13 -7 37 -15 52 -8 16 -15 37 -15 46 0 9 -4 20 -10 23
-5 3 -10 17 -10 29 0 13 -7 37 -15 52 -8 16 -15 41 -15 56 0 15 -4 30 -10 33
-5 3 -10 21 -10 40 0 19 -4 37 -10 40 -5 3 -12 28 -16 56 -4 27 -11 52 -15 55
-5 3 -9 25 -9 50 0 25 -5 55 -11 66 -12 22 -25 95 -37 208 -4 36 -11 71 -15
78 -20 30 -32 281 -32 647 1 380 12 603 34 644 6 11 11 47 11 80 0 33 4 63 10
66 5 3 10 26 10 51 0 25 7 61 15 81 8 19 15 53 15 74 0 21 5 41 10 44 6 3 10
20 10 37 0 16 6 44 14 61 8 18 17 46 19 62 10 56 28 120 38 130 5 5 9 21 9 36
0 15 5 31 10 34 6 3 10 19 10 34 0 16 7 34 15 41 8 7 15 25 15 41 0 15 5 31
10 34 6 3 10 13 10 22 0 8 7 31 16 51 16 38 20 46 49 117 9 22 21 48 26 57 5
10 9 24 9 32 0 7 7 19 15 26 8 7 15 20 15 29 0 16 126 271 168 341 11 19 31
55 44 80 29 58 71 124 81 128 4 2 7 7 7 12 0 4 19 36 43 70 23 34 50 76 60 93
11 18 27 41 37 52 19 20 39 47 99 132 19 26 39 53 45 58 7 6 29 33 50 60 105
139 503 537 641 641 28 21 52 41 55 46 6 8 93 72 154 114 22 15 51 37 65 50
14 13 31 24 37 24 6 0 17 6 23 14 7 8 42 33 79 56 96 59 100 62 158 98 29 17
56 32 59 32 3 0 30 15 59 34 29 18 62 37 74 40 12 4 22 12 22 17 0 5 6 9 14 9
7 0 58 23 112 50 54 28 103 50 109 50 5 0 35 12 65 26 30 15 64 30 75 35 54
21 102 41 115 49 9 4 30 11 48 14 17 4 34 12 37 17 4 5 18 9 33 9 15 0 36 7
46 15 11 8 30 15 42 15 13 0 26 5 29 10 3 6 17 10 29 10 13 0 37 7 52 15 16 8
39 15 51 15 12 0 25 5 28 10 3 6 21 10 39 10 19 0 47 7 62 15 16 8 43 15 61
15 17 0 35 5 38 10 3 6 23 10 44 10 21 0 55 7 74 15 20 8 56 15 81 15 25 0 48
5 51 10 3 6 33 10 66 10 33 0 69 5 79 10 11 6 57 13 102 16 46 3 101 10 123
14 58 12 819 5 954 -8z"/>
<path d="M4515 9190 c-33 -4 -98 -15 -145 -25 -47 -9 -101 -20 -120 -22 -59
-9 -61 -13 -54 -137 8 -128 -2 -169 -66 -276 -71 -119 -174 -190 -327 -225
-77 -18 -107 -19 -170 -4 -174 41 -310 137 -358 253 l-16 37 -77 -42 c-42 -24
-89 -50 -104 -58 -125 -73 -185 -111 -195 -122 -8 -11 -3 -31 22 -85 46 -98
59 -170 50 -274 -8 -107 -44 -186 -121 -270 -103 -111 -204 -153 -369 -152
-127 1 -186 18 -273 80 -29 20 -60 41 -68 47 -11 8 -24 -1 -54 -35 -63 -71
-240 -288 -240 -294 0 -3 27 -33 60 -67 106 -107 157 -246 147 -399 -5 -72
-12 -100 -39 -156 -58 -119 -157 -206 -289 -254 -69 -25 -247 -28 -302 -5 -58
24 -72 20 -92 -27 -10 -24 -23 -56 -30 -73 -7 -16 -20 -50 -28 -75 -9 -25 -29
-83 -46 -130 -17 -47 -31 -86 -31 -87 0 -1 33 -18 74 -37 186 -89 296 -265
296 -469 0 -125 -37 -214 -129 -310 -69 -73 -105 -97 -199 -131 -50 -18 -93
-26 -137 -26 -54 0 -66 -3 -75 -20 -7 -12 -9 -94 -8 -222 l3 -203 35 -3 c76
-6 188 -36 245 -65 237 -124 337 -443 209 -671 -53 -95 -169 -193 -255 -216
-60 -17 -65 -36 -30 -137 63 -189 112 -303 129 -303 9 0 46 9 80 20 82 26 181
26 263 0 66 -20 166 -75 207 -113 47 -44 103 -141 128 -224 24 -75 26 -95 21
-179 -7 -124 -43 -200 -139 -299 -37 -38 -68 -72 -68 -74 0 -13 248 -313 271
-327 6 -3 41 14 77 39 120 82 150 92 292 92 l125 0 80 -39 c191 -93 299 -290
280 -509 -7 -80 -23 -132 -56 -179 -11 -14 -19 -33 -19 -41 0 -13 128 -107
146 -107 3 0 18 -8 32 -19 31 -21 183 -101 194 -101 4 0 25 26 47 58 180 266
527 308 745 90 109 -109 161 -246 154 -407 l-3 -84 50 -13 c28 -7 77 -18 110
-23 189 -31 249 -39 261 -34 8 3 17 17 20 32 18 82 29 112 57 165 17 32 56 84
87 115 192 191 501 185 689 -13 56 -61 116 -174 127 -244 4 -23 12 -46 19 -52
14 -11 286 29 381 56 l51 15 -4 92 c-10 184 63 343 201 441 155 111 334 125
504 39 63 -31 155 -117 195 -180 14 -23 31 -44 37 -48 12 -7 158 69 293 153
83 52 105 79 77 97 -23 14 -58 105 -71 183 -12 78 -11 88 10 170 66 251 236
392 476 392 108 0 191 -24 263 -76 26 -19 56 -41 68 -49 12 -9 27 -13 35 -9
28 12 269 302 269 324 0 7 -31 45 -68 84 -37 39 -77 92 -89 117 -28 60 -53
157 -53 206 0 56 37 189 68 247 109 200 353 302 564 236 34 -11 69 -20 76 -20
17 0 58 93 113 257 45 136 46 156 8 173 -151 69 -234 143 -290 256 -30 61 -34
79 -37 165 -6 164 42 292 150 395 92 89 186 130 323 143 l70 6 3 165 c1 91 -1
190 -5 220 l-8 55 -75 6 c-140 12 -234 54 -325 146 -98 99 -135 186 -135 318
0 153 47 271 147 371 54 54 145 114 174 114 8 0 23 6 32 13 16 11 14 19 -17
102 -19 50 -53 141 -76 203 -47 123 -50 125 -117 97 -53 -22 -233 -20 -298 3
-95 35 -130 57 -196 122 -93 92 -149 219 -149 339 0 52 42 191 75 248 16 26
53 74 83 106 49 51 54 60 44 80 -18 38 -254 317 -268 317 -3 0 -28 -17 -57
-38 -54 -39 -74 -50 -142 -77 -45 -19 -267 -24 -301 -8 -134 66 -161 83 -213
138 -149 155 -177 360 -76 559 15 30 25 61 22 70 -5 13 -145 99 -310 190 -61
34 -68 35 -74 19 -17 -47 -96 -142 -151 -181 -92 -64 -242 -111 -319 -99 -189
31 -305 98 -391 227 -61 91 -76 149 -70 280 6 125 2 136 -57 143 -22 3 -74 13
-115 21 -41 9 -113 20 -160 26 -97 12 -110 5 -110 -58 0 -99 -135 -275 -255
-332 -71 -33 -171 -60 -225 -60 -55 0 -155 27 -229 62 -122 58 -240 209 -254
326 -6 48 -22 73 -46 70 -9 0 -43 -4 -76 -8z m409 -561 c19 -15 26 -29 26 -57
0 -84 -98 -114 -135 -41 -21 40 -19 57 14 90 35 34 59 36 95 8z m-590 -121 c8
-18 16 -53 20 -78 11 -74 17 -78 72 -42 58 39 121 43 172 12 55 -34 68 -65
114 -275 6 -27 14 -64 18 -81 10 -40 4 -47 -49 -63 -55 -16 -62 -9 -80 76 -20
91 -31 134 -50 183 -15 41 -20 45 -55 48 -75 6 -97 -47 -70 -168 42 -190 41
-197 -34 -202 -43 -3 -44 -2 -57 37 -7 22 -20 76 -29 120 -10 44 -21 94 -26
110 -4 17 -15 66 -25 110 -9 44 -20 94 -25 110 -27 93 -22 112 31 125 55 13
59 12 73 -22z m1831 -4 c62 -18 140 -76 177 -131 32 -47 30 -61 -13 -85 -44
-26 -63 -22 -94 17 -47 63 -94 85 -178 85 -69 0 -76 -2 -114 -35 -22 -19 -48
-50 -57 -69 -20 -42 -21 -137 -2 -174 45 -86 173 -136 252 -98 62 30 70 29 93
-9 34 -58 29 -79 -26 -101 -35 -14 -72 -19 -138 -18 -76 0 -99 5 -146 27 -68
33 -118 82 -153 148 -22 43 -26 64 -26 135 0 70 4 93 27 139 30 66 97 137 145
154 18 7 42 17 53 22 46 20 117 17 200 -7z m-746 -45 c31 -18 35 -19 51 -4 14
13 27 14 66 8 l49 -9 -3 -134 c-1 -74 -6 -173 -10 -220 l-7 -85 -49 -3 c-33
-2 -53 2 -65 12 -16 14 -21 14 -47 1 -65 -32 -155 -19 -213 32 -129 110 -105
330 44 407 45 23 142 21 184 -5z m-466 -49 c4 -30 14 -127 22 -215 16 -183 15
-185 -61 -185 -46 0 -54 9 -54 65 0 19 -4 56 -9 82 -5 26 -12 102 -15 169 -6
118 -6 121 16 132 13 6 39 10 58 9 34 -2 35 -3 43 -57z m-927 -181 c25 -7 48
-18 51 -25 7 -19 -35 -84 -55 -85 -9 -1 -34 0 -54 1 -62 3 -133 -49 -144 -105
-7 -38 16 -99 48 -125 52 -44 174 -9 199 57 9 23 13 25 55 20 25 -2 50 -9 56
-15 17 -17 0 -61 -43 -107 -46 -50 -75 -67 -154 -90 -51 -14 -60 -14 -112 1
-99 29 -183 138 -183 237 0 43 57 153 94 179 83 61 156 78 242 57z m2671 -114
c119 -50 178 -155 154 -277 -16 -87 -83 -156 -178 -184 -48 -14 -58 -14 -106
0 -62 18 -113 55 -153 110 -25 35 -28 48 -28 120 -1 86 8 108 63 169 61 68
169 95 248 62z m541 -135 c33 -31 37 -64 12 -100 -28 -39 -60 -47 -99 -24 -49
29 -55 81 -14 119 33 30 72 32 101 5z m-3729 -44 c9 -10 9 -21 -1 -42 -19 -46
-39 -64 -71 -64 -40 0 -106 -39 -123 -72 -8 -15 -14 -45 -14 -66 0 -31 7 -46
35 -75 31 -32 42 -37 82 -37 56 0 105 33 131 88 16 34 21 37 66 40 72 5 77
-12 36 -104 -51 -113 -218 -179 -331 -132 -76 33 -149 138 -149 216 0 63 41
147 95 195 11 10 43 29 70 42 58 29 155 35 174 11z m3661 -138 c0 -9 -33 -55
-137 -196 -24 -31 -60 -81 -80 -109 -21 -29 -43 -53 -49 -53 -21 0 -83 55 -84
74 0 10 12 33 28 51 15 18 51 67 81 110 30 42 59 82 66 88 6 7 21 29 34 49 35
58 48 61 98 25 24 -17 43 -34 43 -39z m-1765 -33 c356 -40 643 -128 963 -295
229 -120 433 -271 628 -466 221 -221 388 -455 520 -729 143 -298 211 -539 264
-938 28 -213 -10 -694 -69 -891 -5 -17 -15 -51 -22 -76 -45 -170 -128 -372
-225 -545 -77 -138 -71 -128 -231 -350 -79 -109 -357 -386 -473 -471 -128 -94
-227 -164 -234 -164 -3 0 -29 -15 -58 -33 -68 -43 -320 -167 -339 -167 -8 0
-19 -4 -25 -9 -10 -10 -206 -78 -264 -92 -19 -5 -64 -16 -100 -25 -84 -21
-209 -41 -390 -63 -164 -21 -440 -12 -625 21 -33 6 -82 14 -110 18 -27 5 -79
15 -115 24 -36 9 -81 20 -100 25 -54 13 -254 82 -264 92 -6 5 -16 9 -24 9 -44
0 -428 209 -541 294 -30 23 -76 57 -103 77 -125 93 -353 321 -471 474 -192
248 -348 547 -432 830 -14 50 -31 105 -36 122 -58 189 -96 690 -69 908 6 55
23 163 36 240 171 971 877 1776 1821 2075 329 105 739 144 1088 105z m1967
-122 c14 -16 28 -36 30 -47 2 -11 20 -25 45 -35 90 -35 138 -116 113 -191 -16
-47 -231 -280 -259 -280 -9 0 -32 15 -50 34 l-33 34 92 98 c51 55 99 112 107
128 20 38 9 72 -28 92 -29 15 -34 15 -70 -1 -21 -10 -77 -58 -124 -106 -48
-49 -90 -89 -94 -89 -14 0 -83 70 -79 79 8 24 292 311 307 311 9 0 29 -12 43
-27z m-4356 -109 c52 -18 112 -57 121 -80 3 -9 -37 -60 -106 -133 -61 -66
-111 -124 -111 -129 0 -16 34 -24 67 -16 49 12 103 75 103 122 0 20 56 52 90
52 18 0 20 -7 20 -55 0 -124 -113 -235 -240 -235 -105 1 -202 73 -234 175 -40
127 29 247 173 300 48 18 59 18 117 -1z m4923 -281 c27 -37 59 -86 70 -108 63
-127 -19 -255 -163 -255 -58 0 -89 18 -144 83 -13 15 -30 27 -38 27 -7 0 -51
-27 -96 -60 -45 -33 -89 -60 -98 -60 -25 0 -77 78 -64 96 10 15 465 343 477
344 4 0 29 -30 56 -67z m-5263 -279 c67 -100 125 -190 128 -202 5 -13 -1 -29
-16 -47 l-23 -26 -95 17 c-52 9 -120 20 -150 25 -139 22 -210 36 -216 42 -10
10 4 50 29 79 l22 27 85 -15 c131 -23 170 -27 170 -20 0 4 -29 50 -65 102 -36
52 -65 104 -65 114 0 28 43 90 60 87 8 -1 70 -83 136 -183z m5412 -290 c68
-44 112 -135 96 -200 -5 -18 -2 -24 9 -24 23 0 59 -56 55 -86 -3 -28 -13 -35
-138 -93 -47 -21 -120 -55 -162 -75 -42 -20 -81 -36 -87 -36 -18 0 -52 78 -45
104 4 19 -1 28 -25 46 -90 63 -96 212 -12 304 32 35 90 72 122 79 46 10 160
-2 187 -19z m-5816 -68 c18 -8 59 -26 91 -40 32 -14 62 -26 67 -26 5 0 35 -12
67 -26 32 -14 73 -32 91 -40 17 -7 32 -20 32 -28 0 -29 -31 -85 -51 -91 -18
-6 -20 -12 -15 -41 16 -84 -45 -178 -140 -214 -65 -24 -85 -25 -143 -4 -64 22
-93 39 -122 71 -50 55 -59 79 -59 153 0 75 21 123 69 157 15 10 20 21 15 35
-6 19 10 70 29 96 12 16 29 15 69 -2z m6059 -453 c31 -79 30 -81 -91 -166 -60
-44 -110 -83 -110 -87 0 -4 19 -10 43 -13 42 -4 187 -33 219 -43 19 -6 43 -77
34 -101 -7 -18 -58 -15 -186 12 -47 9 -107 21 -135 26 -27 4 -84 15 -125 24
-41 9 -97 20 -125 24 -27 4 -58 11 -67 15 -19 9 -49 96 -37 110 4 4 29 5 56 2
143 -18 172 -18 187 -3 8 8 76 58 151 112 74 53 138 101 141 106 11 18 35 8
45 -18z m-6402 -86 c21 -10 25 -19 25 -62 1 -55 -2 -52 101 -74 194 -40 329
-73 339 -82 13 -12 8 -90 -6 -107 -13 -15 -34 -13 -138 12 -36 9 -87 21 -115
26 -27 5 -79 17 -115 26 -108 26 -114 25 -120 -20 -7 -52 -25 -63 -81 -44 -49
17 -51 24 -31 118 6 25 17 77 24 115 20 98 33 118 66 110 15 -4 38 -12 51 -18z
m655 -2083 c9 -8 16 -19 16 -24 0 -5 10 -26 23 -47 50 -84 61 -172 28 -228
-26 -45 -87 -76 -141 -73 -44 3 -44 3 -52 -37 -16 -74 -84 -125 -170 -125 -88
0 -130 34 -192 152 -18 35 -39 73 -46 84 -26 41 -39 32 270 191 102 53 194
102 205 109 25 18 40 18 59 -2z m5536 -114 c22 -11 40 -26 40 -33 0 -7 -11
-32 -25 -57 -91 -166 -126 -243 -114 -251 17 -10 80 16 100 43 22 29 41 92 33
112 -7 19 49 76 75 76 45 0 54 -110 17 -194 -26 -59 -98 -136 -127 -136 -10 0
-21 -4 -24 -10 -10 -17 -110 -11 -157 9 -117 50 -174 154 -149 270 25 116 115
191 229 191 43 0 75 -6 102 -20z m-573 -516 c48 -32 96 -63 105 -69 109 -65
278 -184 283 -198 9 -24 -40 -77 -69 -77 -12 0 -79 38 -150 85 -71 47 -130 84
-132 82 -4 -4 32 -75 119 -237 l38 -72 -23 -34 c-32 -48 -54 -50 -129 -16 -35
16 -86 39 -114 52 -27 12 -68 31 -89 41 -22 10 -42 17 -44 14 -3 -2 17 -32 44
-66 27 -33 67 -84 90 -113 63 -78 68 -93 50 -122 -9 -13 -28 -31 -42 -40 -25
-17 -26 -16 -57 21 -18 21 -48 60 -67 85 -19 26 -88 118 -154 204 l-118 156
26 35 c42 54 56 58 115 30 28 -14 53 -25 55 -25 3 0 60 -27 128 -59 68 -33
124 -56 126 -51 3 9 -6 28 -121 238 -32 56 -57 108 -57 114 0 18 73 89 86 84
7 -3 52 -31 101 -62z m-4737 -34 c45 -23 82 -69 99 -122 8 -24 24 -44 47 -57
36 -22 60 -60 51 -84 -4 -11 -215 -193 -310 -266 -16 -13 -22 -10 -52 20 -22
21 -34 44 -35 61 0 21 -6 28 -29 33 -32 7 -96 71 -111 111 -16 42 -12 132 9
177 23 50 59 86 121 121 58 33 151 36 210 6z m453 -464 c15 -14 27 -32 27 -39
0 -9 15 -18 38 -22 20 -4 51 -15 68 -26 32 -19 74 -92 74 -128 0 -26 -25 -80
-57 -122 -16 -20 -57 -75 -92 -123 -36 -47 -71 -86 -79 -86 -23 0 -82 49 -81
68 0 9 18 40 40 67 69 88 118 162 124 188 5 20 1 32 -20 53 -22 22 -33 25 -62
21 -41 -7 -56 -18 -97 -73 -101 -134 -118 -154 -127 -154 -16 0 -89 53 -89 65
0 11 37 62 135 190 33 43 70 92 83 109 45 62 59 64 115 12z m3332 -142 c15 -6
45 -53 45 -72 0 -5 -9 -12 -21 -15 -16 -4 -20 -12 -17 -39 3 -32 4 -33 44 -30
38 3 43 0 58 -29 22 -43 20 -54 -9 -73 l-25 -17 28 -52 c94 -171 125 -236 119
-250 -7 -19 -81 -57 -95 -48 -6 3 -23 31 -39 61 -17 30 -51 94 -77 143 -32 59
-53 87 -65 87 -33 0 -55 37 -53 90 1 27 -5 60 -13 76 -34 65 -11 123 59 155
49 22 41 20 61 13z m-2746 -44 c22 -11 41 -25 44 -32 2 -7 -6 -33 -18 -58 -42
-82 -105 -221 -105 -231 0 -13 3 -12 62 15 121 55 134 57 181 39 51 -19 72
-37 64 -55 -3 -7 -55 -33 -116 -57 -88 -36 -111 -49 -111 -64 0 -18 39 -147
61 -205 11 -29 12 -72 0 -72 -16 0 -98 40 -108 52 -14 18 -63 162 -63 186 0
17 -27 51 -33 41 -19 -34 -57 -117 -57 -126 0 -23 -22 -24 -65 -4 -63 29 -63
34 7 180 28 58 73 153 100 211 28 58 57 121 66 140 33 69 34 69 91 40z m2342
-229 c103 -49 169 -138 187 -252 21 -138 -51 -271 -181 -333 -78 -36 -185 -37
-262 -1 -106 51 -177 153 -192 276 -16 137 104 295 252 333 44 11 151 -2 196
-23z m-1622 -206 c55 -31 96 -84 112 -148 13 -52 4 -136 -15 -143 -6 -2 -43 2
-81 11 -206 46 -249 55 -254 50 -12 -12 17 -61 48 -82 37 -25 98 -30 132 -12
17 8 27 6 55 -13 39 -27 52 -55 33 -73 -22 -19 -96 -45 -131 -45 -97 0 -212
73 -244 155 -37 98 -2 221 81 287 69 54 178 60 264 13z m591 -70 c12 -14 -13
-84 -33 -89 -70 -19 -71 -19 -84 -81 -7 -33 -12 -103 -13 -156 0 -60 -4 -99
-12 -107 -16 -16 -93 -15 -105 1 -15 20 2 428 19 438 19 12 49 11 78 -4 21
-11 31 -11 63 4 41 17 69 16 87 -6z"/>
<path d="M5304 8361 c-12 -5 -31 -21 -42 -36 -60 -75 -20 -187 71 -202 85 -13
155 94 113 175 -29 57 -92 84 -142 63z"/>
<path d="M6569 7995 c-35 -19 -69 -78 -69 -120 0 -24 9 -43 34 -69 29 -31 40
-36 77 -36 50 1 87 26 113 77 21 42 20 61 -4 100 -34 57 -98 77 -151 48z"/>
<path d="M3607 6733 c-4 -3 -7 -226 -7 -495 l0 -488 84 0 84 0 37 98 c116 300
317 580 465 646 l61 27 282 2 282 2 3 -1495 c3 -1662 8 -1541 -64 -1620 -51
-56 -128 -84 -284 -100 -58 -7 -132 -15 -165 -18 l-60 -7 -3 -87 -3 -88 850 0
c765 0 849 2 855 16 8 22 7 137 -2 150 -4 6 -29 14 -57 17 -27 3 -86 13 -130
22 -44 9 -100 20 -125 25 -133 27 -205 77 -242 169 l-23 56 -3 1450 c-1 798 0
1464 3 1481 7 42 16 43 323 31 306 -11 318 -14 437 -130 127 -125 282 -379
349 -572 l24 -70 84 0 83 0 3 479 c1 345 -1 483 -9 492 -10 12 -266 14 -1569
14 -856 0 -1560 -3 -1563 -7z"/>
<path d="M7909 6570 c-35 -19 -69 -70 -69 -105 0 -50 62 -115 110 -115 54 0
123 54 136 107 8 31 -19 87 -55 112 -36 26 -75 26 -122 1z"/>
<path d="M2285 6448 c-118 -42 -87 -208 42 -225 75 -10 138 65 119 140 -15 61
-101 106 -161 85z"/>
<path d="M2260 3714 c-65 -36 -66 -39 -36 -78 37 -49 62 -61 91 -46 38 20 46
52 29 105 -9 25 -21 45 -27 44 -7 0 -32 -12 -57 -25z"/>
<path d="M2660 3212 c-41 -20 -80 -74 -80 -111 0 -37 35 -90 68 -102 42 -16
105 -2 136 30 56 59 40 158 -29 187 -44 18 -53 18 -95 -4z"/>
<path d="M6015 2344 c-161 -42 -190 -257 -48 -354 52 -35 146 -34 202 3 86 57
108 170 51 271 -37 67 -124 101 -205 80z"/>
</g>
</svg>
